<svg width="260" height="40" viewBox="0 0 260 40" fill="none" xmlns="http://www.w3.org/2000/svg">
<mask id="mask0_1_35759" style="mask-type:alpha" maskUnits="userSpaceOnUse" x="0" y="0" width="36" height="40">
<path d="M16.3375 0.853321C17.2322 0.326672 18.3421 0.326672 19.2368 0.853321L34.1662 9.64112C35.0387 10.1547 35.5743 11.0915 35.5743 12.1039V27.8958C35.5743 28.9082 35.0387 29.8451 34.1662 30.3587L19.2368 39.1465C18.3421 39.6731 17.2322 39.6731 16.3375 39.1465L1.40813 30.3587C0.535649 29.8451 0 28.9083 0 27.8958V12.1039C0 11.0915 0.535647 10.1547 1.40813 9.64112L16.3375 0.853321Z" fill="#C4C4C4"/>
</mask>
<g mask="url(#mask0_1_35759)">
<rect x="7.62109" y="19.0371" width="3.1905" height="18.5663" fill="white"/>
<mask id="mask1_1_35759" style="mask-type:alpha" maskUnits="userSpaceOnUse" x="11" y="12" width="8" height="4">
<rect x="18.149" y="12.0332" width="3.00821" height="6.381" transform="rotate(90 18.149 12.0332)" fill="#CD6767"/>
</mask>
<g mask="url(#mask1_1_35759)">
<path d="M11.768 15.0414C11.768 14.6464 11.8505 14.2552 12.0109 13.8902C12.1712 13.5252 12.4062 13.1936 12.7025 12.9143C12.9987 12.6349 13.3504 12.4134 13.7375 12.2622C14.1246 12.111 14.5395 12.0332 14.9585 12.0332L14.9585 15.0414L11.768 15.0414Z" fill="white"/>
</g>
<mask id="mask2_1_35759" style="mask-type:alpha" maskUnits="userSpaceOnUse" x="17" y="12" width="7" height="4">
<rect x="23.8199" y="12.0332" width="3.00821" height="6.381" rx="0.178613" transform="rotate(90 23.8199 12.0332)" fill="#CD6767"/>
</mask>
<g mask="url(#mask2_1_35759)">
<path d="M17.6176 15.0414C17.5189 15.0414 17.4384 14.9613 17.4446 14.8629C17.4907 14.1302 17.8199 13.4362 18.3734 12.9143C18.9718 12.3501 19.7833 12.0332 20.6294 12.0332C21.4756 12.0332 22.2871 12.3501 22.8855 12.9143C23.439 13.4362 23.7682 14.1302 23.8143 14.8629C23.8205 14.9613 23.74 15.0414 23.6413 15.0414L20.6294 15.0414L17.6176 15.0414Z" fill="white"/>
</g>
<path d="M19.5558 23.1729C19.6545 23.1729 19.7344 23.2528 19.7344 23.3515L19.7344 26.0024C19.7344 26.1011 19.6545 26.1811 19.5558 26.1811L10.811 26.1811L10.811 23.1729L19.5558 23.1729Z" fill="white"/>
<path d="M23.8314 27.0742L20.6409 27.0742L20.6409 20.0143C20.6409 19.9157 20.7208 19.8357 20.8195 19.8357L23.6527 19.8357C23.7514 19.8357 23.8314 19.9157 23.8314 20.0143L23.8314 27.0742Z" fill="white"/>
<path d="M11.7606 15.04L14.9511 15.04L14.9511 22.0999C14.9511 22.1986 14.8712 22.2785 14.7725 22.2785L11.9392 22.2785C11.8406 22.2785 11.7606 22.1986 11.7606 22.0999L11.7606 15.04Z" fill="white"/>
<path d="M24.7704 15.9346L24.7704 18.9428L16.0754 18.9428C15.9768 18.9428 15.8968 18.8628 15.8968 18.7642L15.8968 16.1132C15.8968 16.0145 15.9768 15.9346 16.0754 15.9346L24.7704 15.9346Z" fill="white"/>
<path d="M20.6411 27.0742L20.6411 30.0824L11.7675 30.0824L11.7675 27.2528C11.7675 27.1542 11.8474 27.0742 11.9461 27.0742L20.6411 27.0742Z" fill="white"/>
<rect x="20.591" y="12.0332" width="3.00821" height="5.63322" transform="rotate(90 20.591 12.0332)" fill="white"/>
<mask id="mask3_1_35759" style="mask-type:alpha" maskUnits="userSpaceOnUse" x="24" y="15" width="4" height="7">
<rect x="27.9558" y="21.9509" width="3.1905" height="6.01642" transform="rotate(-180 27.9558 21.9509)" fill="#CD6767"/>
</mask>
<g mask="url(#mask3_1_35759)">
<path d="M24.7653 15.9345C25.6115 15.9345 26.423 16.2514 27.0213 16.8156C27.6197 17.3797 27.9558 18.1449 27.9558 18.9427L24.7653 18.9427L24.7653 15.9345Z" fill="white"/>
</g>
<mask id="mask4_1_35759" style="mask-type:alpha" maskUnits="userSpaceOnUse" x="24" y="21" width="4" height="7">
<rect x="27.9646" y="27.3096" width="3.1905" height="6.01642" rx="0.178613" transform="rotate(-180 27.9646 27.3096)" fill="#CD6767"/>
</mask>
<g mask="url(#mask4_1_35759)">
<path d="M24.7741 21.4718C24.7741 21.3731 24.8541 21.2927 24.9527 21.2979C25.7337 21.3391 26.474 21.6499 27.0301 22.1742C27.6285 22.7384 27.9646 23.5035 27.9646 24.3014C27.9646 25.0992 27.6285 25.8643 27.0301 26.4285C26.474 26.9528 25.7337 27.2636 24.9527 27.3049C24.8541 27.3101 24.7741 27.2296 24.7741 27.131L24.7741 24.3014L24.7741 21.4718Z" fill="white"/>
</g>
<rect x="27.9646" y="24.3008" width="3.1905" height="5.35837" transform="rotate(-180 27.9646 24.3008)" fill="white"/>
<path d="M11.7684 30.082H14.9589L14.9589 39.4921C14.9589 39.5907 14.8789 39.6707 14.7803 39.6707H11.947C11.8483 39.6707 11.7684 39.5907 11.7684 39.4921L11.7684 30.082Z" fill="white"/>
<mask id="mask5_1_35759" style="mask-type:alpha" maskUnits="userSpaceOnUse" x="7" y="16" width="4" height="7">
<rect x="7.62109" y="16.0293" width="3.1905" height="6.01642" rx="0.178613" fill="#CD6767"/>
</mask>
<g mask="url(#mask5_1_35759)">
<ellipse cx="10.8116" cy="19.0375" rx="3.1905" ry="3.00821" fill="white"/>
</g>
<mask id="mask6_1_35759" style="mask-type:alpha" maskUnits="userSpaceOnUse" x="20" y="27" width="4" height="4">
<rect x="20.6411" y="30.082" width="3.00821" height="3.1905" transform="rotate(-90 20.6411 30.082)" fill="#CD6767"/>
</mask>
<g mask="url(#mask6_1_35759)">
<path d="M23.8195 27.0738C23.8195 27.4689 23.737 27.86 23.5767 28.225C23.4163 28.59 23.1813 28.9216 22.8851 29.2009C22.5888 29.4803 22.2371 29.7019 21.85 29.853C21.4629 30.0042 21.048 30.082 20.629 30.082L20.629 27.0738L23.8195 27.0738Z" fill="white"/>
</g>
</g>
<path d="M54.7399 15.0995C56.0027 15.0995 57.0655 15.5246 57.9282 16.3748C58.7909 17.225 59.2222 18.2689 59.2222 19.5067C59.2222 20.7445 58.7909 21.7885 57.9282 22.6387C57.0655 23.4889 56.0027 23.914 54.7399 23.914H52.4331V28.2275H49.845V15.0995H54.7399ZM54.7399 21.4947C55.29 21.4947 55.7464 21.3072 56.109 20.9321C56.4716 20.5445 56.6529 20.0694 56.6529 19.5067C56.6529 18.9316 56.4716 18.4565 56.109 18.0814C55.7464 17.7063 55.29 17.5188 54.7399 17.5188H52.4331V21.4947H54.7399ZM63.0125 20.4632C63.2376 19.8631 63.6064 19.413 64.119 19.1129C64.6441 18.8128 65.2255 18.6628 65.8632 18.6628V21.3634C65.1255 21.2759 64.4629 21.4259 63.8752 21.8135C63.3001 22.2011 63.0125 22.845 63.0125 23.7452V28.2275H60.5932V18.8503H63.0125V20.4632ZM74.9195 27.0648C73.9568 28.015 72.7815 28.4901 71.3937 28.4901C70.0059 28.4901 68.8306 28.015 67.8679 27.0648C66.9176 26.102 66.4425 24.9268 66.4425 23.5389C66.4425 22.1511 66.9176 20.9821 67.8679 20.0319C68.8306 19.0691 70.0059 18.5878 71.3937 18.5878C72.7815 18.5878 73.9568 19.0691 74.9195 20.0319C75.8822 20.9821 76.3636 22.1511 76.3636 23.5389C76.3636 24.9268 75.8822 26.102 74.9195 27.0648ZM69.5745 25.3956C70.0621 25.8832 70.6685 26.127 71.3937 26.127C72.1188 26.127 72.7252 25.8832 73.2129 25.3956C73.7005 24.908 73.9443 24.2891 73.9443 23.5389C73.9443 22.7888 73.7005 22.1699 73.2129 21.6823C72.7252 21.1946 72.1188 20.9508 71.3937 20.9508C70.6685 20.9508 70.0621 21.1946 69.5745 21.6823C69.0994 22.1699 68.8618 22.7888 68.8618 23.5389C68.8618 24.2891 69.0994 24.908 69.5745 25.3956ZM85.2485 18.8503H87.6116V27.7774C87.6116 29.2278 87.1302 30.3343 86.1675 31.097C85.2172 31.8596 84.067 32.241 82.7167 32.241C81.7039 32.241 80.81 32.0472 80.0348 31.6596C79.2721 31.272 78.6845 30.7031 78.2719 29.9529L80.3348 28.7714C80.81 29.6466 81.6289 30.0842 82.7917 30.0842C83.5543 30.0842 84.1545 29.8842 84.5921 29.4841C85.0297 29.084 85.2485 28.5151 85.2485 27.7774V26.7647C84.5358 27.7149 83.5356 28.19 82.2478 28.19C80.9225 28.19 79.8097 27.7274 78.9095 26.8022C78.0218 25.8645 77.5779 24.7267 77.5779 23.3889C77.5779 22.0636 78.0281 20.9321 78.9283 19.9944C79.8285 19.0566 80.935 18.5878 82.2478 18.5878C83.5356 18.5878 84.5358 19.0629 85.2485 20.0131V18.8503ZM80.7287 25.2456C81.2288 25.7207 81.8602 25.9583 82.6229 25.9583C83.3856 25.9583 84.0107 25.7207 84.4983 25.2456C84.9984 24.758 85.2485 24.1391 85.2485 23.3889C85.2485 22.6512 84.9984 22.0448 84.4983 21.5697C84.0107 21.0821 83.3856 20.8383 82.6229 20.8383C81.8602 20.8383 81.2288 21.0821 80.7287 21.5697C80.2411 22.0448 79.9973 22.6512 79.9973 23.3889C79.9973 24.1391 80.2411 24.758 80.7287 25.2456ZM92.2247 20.4632C92.4497 19.8631 92.8186 19.413 93.3312 19.1129C93.8563 18.8128 94.4377 18.6628 95.0754 18.6628V21.3634C94.3377 21.2759 93.675 21.4259 93.0874 21.8135C92.5123 22.2011 92.2247 22.845 92.2247 23.7452V28.2275H89.8054V18.8503H92.2247V20.4632ZM103.269 18.8503H105.688V28.2275H103.269V27.121C102.544 28.0337 101.525 28.4901 100.212 28.4901C98.9617 28.4901 97.8865 28.015 96.9863 27.0648C96.0986 26.102 95.6547 24.9268 95.6547 23.5389C95.6547 22.1511 96.0986 20.9821 96.9863 20.0319C97.8865 19.0691 98.9617 18.5878 100.212 18.5878C101.525 18.5878 102.544 19.0441 103.269 19.9568V18.8503ZM98.8054 25.4519C99.2931 25.9395 99.912 26.1833 100.662 26.1833C101.412 26.1833 102.031 25.9395 102.519 25.4519C103.019 24.9518 103.269 24.3141 103.269 23.5389C103.269 22.7638 103.019 22.1324 102.519 21.6447C102.031 21.1446 101.412 20.8946 100.662 20.8946C99.912 20.8946 99.2931 21.1446 98.8054 21.6447C98.3178 22.1324 98.074 22.7638 98.074 23.5389C98.074 24.3141 98.3178 24.9518 98.8054 25.4519ZM118.253 18.5878C119.329 18.5878 120.185 18.9379 120.823 19.638C121.473 20.3382 121.798 21.2759 121.798 22.4512V28.2275H119.379V22.62C119.379 22.0573 119.241 21.6197 118.966 21.3072C118.691 20.9946 118.303 20.8383 117.803 20.8383C117.253 20.8383 116.822 21.0196 116.509 21.3822C116.209 21.7448 116.059 22.2699 116.059 22.9576V28.2275H113.64V22.62C113.64 22.0573 113.502 21.6197 113.227 21.3072C112.952 20.9946 112.564 20.8383 112.064 20.8383C111.527 20.8383 111.095 21.0196 110.77 21.3822C110.458 21.7448 110.301 22.2699 110.301 22.9576V28.2275H107.882V18.8503H110.301V19.8443C110.864 19.0066 111.733 18.5878 112.908 18.5878C114.059 18.5878 114.909 19.0379 115.459 19.9381C116.084 19.0379 117.016 18.5878 118.253 18.5878ZM134.224 18.5878C135.299 18.5878 136.156 18.9379 136.793 19.638C137.443 20.3382 137.768 21.2759 137.768 22.4512V28.2275H135.349V22.62C135.349 22.0573 135.212 21.6197 134.937 21.3072C134.661 20.9946 134.274 20.8383 133.774 20.8383C133.224 20.8383 132.792 21.0196 132.48 21.3822C132.18 21.7448 132.03 22.2699 132.03 22.9576V28.2275H129.61V22.62C129.61 22.0573 129.473 21.6197 129.198 21.3072C128.923 20.9946 128.535 20.8383 128.035 20.8383C127.497 20.8383 127.066 21.0196 126.741 21.3822C126.428 21.7448 126.272 22.2699 126.272 22.9576V28.2275H123.853V18.8503H126.272V19.8443C126.835 19.0066 127.704 18.5878 128.879 18.5878C130.029 18.5878 130.879 19.0379 131.429 19.9381C132.055 19.0379 132.986 18.5878 134.224 18.5878ZM141.024 17.7251C140.623 17.7251 140.273 17.5813 139.973 17.2937C139.686 16.9936 139.542 16.6436 139.542 16.2435C139.542 15.8434 139.686 15.4933 139.973 15.1932C140.273 14.8932 140.623 14.7431 141.024 14.7431C141.436 14.7431 141.786 14.8932 142.074 15.1932C142.374 15.4933 142.524 15.8434 142.524 16.2435C142.524 16.6436 142.374 16.9936 142.074 17.2937C141.786 17.5813 141.436 17.7251 141.024 17.7251ZM139.823 28.2275V18.8503H142.243V28.2275H139.823ZM149.671 18.5878C150.696 18.5878 151.54 18.9316 152.202 19.6193C152.878 20.3069 153.215 21.2572 153.215 22.4699V28.2275H150.796V22.77C150.796 22.1449 150.627 21.6697 150.29 21.3447C149.952 21.0071 149.502 20.8383 148.939 20.8383C148.314 20.8383 147.814 21.0321 147.439 21.4197C147.064 21.8073 146.876 22.3887 146.876 23.1638V28.2275H144.457V18.8503H146.876V19.9006C147.464 19.0254 148.395 18.5878 149.671 18.5878ZM162.464 18.8503H164.827V27.7774C164.827 29.2278 164.346 30.3343 163.383 31.097C162.433 31.8596 161.282 32.241 159.932 32.241C158.919 32.241 158.025 32.0472 157.25 31.6596C156.487 31.272 155.9 30.7031 155.487 29.9529L157.55 28.7714C158.025 29.6466 158.844 30.0842 160.007 30.0842C160.77 30.0842 161.37 29.8842 161.807 29.4841C162.245 29.084 162.464 28.5151 162.464 27.7774V26.7647C161.751 27.7149 160.751 28.19 159.463 28.19C158.138 28.19 157.025 27.7274 156.125 26.8022C155.237 25.8645 154.793 24.7267 154.793 23.3889C154.793 22.0636 155.243 20.9321 156.144 19.9944C157.044 19.0566 158.15 18.5878 159.463 18.5878C160.751 18.5878 161.751 19.0629 162.464 20.0131V18.8503ZM157.944 25.2456C158.444 25.7207 159.076 25.9583 159.838 25.9583C160.601 25.9583 161.226 25.7207 161.714 25.2456C162.214 24.758 162.464 24.1391 162.464 23.3889C162.464 22.6512 162.214 22.0448 161.714 21.5697C161.226 21.0821 160.601 20.8383 159.838 20.8383C159.076 20.8383 158.444 21.0821 157.944 21.5697C157.456 22.0448 157.213 22.6512 157.213 23.3889C157.213 24.1391 157.456 24.758 157.944 25.2456ZM176.717 15.0995C177.98 15.0995 179.042 15.5246 179.905 16.3748C180.768 17.225 181.199 18.2689 181.199 19.5067C181.199 20.7445 180.768 21.7885 179.905 22.6387C179.042 23.4889 177.98 23.914 176.717 23.914H174.41V28.2275H171.822V15.0995H176.717ZM176.717 21.4947C177.267 21.4947 177.723 21.3072 178.086 20.9321C178.448 20.5445 178.63 20.0694 178.63 19.5067C178.63 18.9316 178.448 18.4565 178.086 18.0814C177.723 17.7063 177.267 17.5188 176.717 17.5188H174.41V21.4947H176.717ZM189.276 18.8503H191.695V28.2275H189.276V27.121C188.55 28.0337 187.531 28.4901 186.219 28.4901C184.968 28.4901 183.893 28.015 182.993 27.0648C182.105 26.102 181.661 24.9268 181.661 23.5389C181.661 22.1511 182.105 20.9821 182.993 20.0319C183.893 19.0691 184.968 18.5878 186.219 18.5878C187.531 18.5878 188.55 19.0441 189.276 19.9568V18.8503ZM184.812 25.4519C185.3 25.9395 185.918 26.1833 186.669 26.1833C187.419 26.1833 188.038 25.9395 188.525 25.4519C189.025 24.9518 189.276 24.3141 189.276 23.5389C189.276 22.7638 189.025 22.1324 188.525 21.6447C188.038 21.1446 187.419 20.8946 186.669 20.8946C185.918 20.8946 185.3 21.1446 184.812 21.6447C184.324 22.1324 184.081 22.7638 184.081 23.5389C184.081 24.3141 184.324 24.9518 184.812 25.4519ZM199.252 21.1759H197.133V25.0768C197.133 25.4019 197.214 25.6394 197.377 25.7895C197.54 25.9395 197.777 26.027 198.09 26.052C198.402 26.0645 198.79 26.0583 199.252 26.0333V28.2275C197.59 28.4151 196.414 28.2588 195.727 27.7587C195.051 27.2586 194.714 26.3646 194.714 25.0768V21.1759H193.082V18.8503H194.714V16.9561L197.133 16.2247V18.8503H199.252V21.1759ZM206.172 18.5878C207.197 18.5878 208.041 18.9316 208.704 19.6193C209.379 20.3069 209.717 21.2572 209.717 22.4699V28.2275H207.297V22.77C207.297 22.1449 207.128 21.6697 206.791 21.3447C206.453 21.0071 206.003 20.8383 205.44 20.8383C204.815 20.8383 204.315 21.0321 203.94 21.4197C203.565 21.8073 203.378 22.3887 203.378 23.1638V28.2275H200.958V15.0995H203.378V19.9006C203.965 19.0254 204.897 18.5878 206.172 18.5878ZM214.014 21.5135C214.014 21.7635 214.177 21.9698 214.502 22.1324C214.839 22.2824 215.246 22.4199 215.721 22.545C216.196 22.6575 216.671 22.8075 217.146 22.9951C217.621 23.1701 218.021 23.4702 218.346 23.8953C218.684 24.3204 218.853 24.8517 218.853 25.4894C218.853 26.4521 218.49 27.196 217.765 27.7212C217.052 28.2338 216.158 28.4901 215.083 28.4901C213.158 28.4901 211.845 27.7462 211.145 26.2583L213.245 25.0768C213.52 25.8895 214.133 26.2958 215.083 26.2958C215.946 26.2958 216.377 26.027 216.377 25.4894C216.377 25.2393 216.208 25.0393 215.871 24.8893C215.546 24.7267 215.146 24.5829 214.67 24.4579C214.195 24.3329 213.72 24.1766 213.245 23.989C212.77 23.8015 212.364 23.5077 212.026 23.1076C211.701 22.695 211.538 22.1824 211.538 21.5697C211.538 20.6445 211.876 19.9193 212.551 19.3942C213.239 18.8566 214.089 18.5878 215.102 18.5878C215.864 18.5878 216.558 18.7628 217.184 19.1129C217.809 19.4505 218.303 19.9381 218.665 20.5757L216.602 21.701C216.302 21.0634 215.802 20.7445 215.102 20.7445C214.789 20.7445 214.527 20.8133 214.314 20.9508C214.114 21.0884 214.014 21.2759 214.014 21.5135ZM225.622 18.5878C226.648 18.5878 227.491 18.9316 228.154 19.6193C228.829 20.3069 229.167 21.2572 229.167 22.4699V28.2275H226.748V22.77C226.748 22.1449 226.579 21.6697 226.241 21.3447C225.904 21.0071 225.454 20.8383 224.891 20.8383C224.266 20.8383 223.766 21.0321 223.391 21.4197C223.015 21.8073 222.828 22.3887 222.828 23.1638V28.2275H220.409V15.0995H222.828V19.9006C223.416 19.0254 224.347 18.5878 225.622 18.5878ZM238.359 18.8503H240.779V28.2275H238.359V27.121C237.634 28.0337 236.615 28.4901 235.302 28.4901C234.052 28.4901 232.977 28.015 232.077 27.0648C231.189 26.102 230.745 24.9268 230.745 23.5389C230.745 22.1511 231.189 20.9821 232.077 20.0319C232.977 19.0691 234.052 18.5878 235.302 18.5878C236.615 18.5878 237.634 19.0441 238.359 19.9568V18.8503ZM233.896 25.4519C234.383 25.9395 235.002 26.1833 235.752 26.1833C236.503 26.1833 237.122 25.9395 237.609 25.4519C238.109 24.9518 238.359 24.3141 238.359 23.5389C238.359 22.7638 238.109 22.1324 237.609 21.6447C237.122 21.1446 236.503 20.8946 235.752 20.8946C235.002 20.8946 234.383 21.1446 233.896 21.6447C233.408 22.1324 233.164 22.7638 233.164 23.5389C233.164 24.3141 233.408 24.9518 233.896 25.4519ZM242.972 28.2275V14.5368H245.392V28.2275H242.972ZM254.733 18.8503H257.152V28.2275H254.733V27.121C254.008 28.0337 252.989 28.4901 251.676 28.4901C250.426 28.4901 249.35 28.015 248.45 27.0648C247.562 26.102 247.118 24.9268 247.118 23.5389C247.118 22.1511 247.562 20.9821 248.45 20.0319C249.35 19.0691 250.426 18.5878 251.676 18.5878C252.989 18.5878 254.008 19.0441 254.733 19.9568V18.8503ZM250.269 25.4519C250.757 25.9395 251.376 26.1833 252.126 26.1833C252.876 26.1833 253.495 25.9395 253.983 25.4519C254.483 24.9518 254.733 24.3141 254.733 23.5389C254.733 22.7638 254.483 22.1324 253.983 21.6447C253.495 21.1446 252.876 20.8946 252.126 20.8946C251.376 20.8946 250.757 21.1446 250.269 21.6447C249.782 22.1324 249.538 22.7638 249.538 23.5389C249.538 24.3141 249.782 24.9518 250.269 25.4519Z" fill="#3940A0"/>
</svg>
